<svg width="66" height="26" viewBox="0 0 66 26" fill="none" xmlns="http://www.w3.org/2000/svg">
  <path d="M25.1 11.8c0 2.9-1.8 4.3-4.1 4.3-1.6 0-2.6-.5-2.6-.5l-.5 3.2H15l2.3-13.4s1-.2 2.8-.2c2.1 0 5 1.1 5 4.3v2.3zm-2.8.2c0-1.6-1-2.5-2.5-2.5-1 0-1.5.1-1.5.1l-1 6.2s.4.1 1 .1c1.5-.1 4-1 4-3.9zM28.5 6.2H26L23.7 17.5h2.4L28.5 6.2zm6.5 3.3c-1.8 0-2.5 1-2.5 1l-.5-2.7h-2.3s.1.8.1 1.3l-2.1 9.8h2.4l1.1-5.3s.7.7 1.7.7c1.6 0 3.3-1.7 3.3-4.9 0-2.6-1.7-3.5-3.3-3.5l2.1 3.6zm-.8 2.6c0 1.6-.8 2.6-1.8 2.6-.6 0-1-.3-1-.3l.7-3s.3-.3 1-.3c.8 0 1.1.7 1.1 1zM45.9 6.2l-1.7 7.8c-.6 2.8-2.6 3.5-4.8 3.5-1.3 0-1.9-.2-1.9-.2l.4-1.8s.5.2 1.1.2c1.1 0 1.8-.6 1.9-1.4l.1-.4-3.1-7.8H40.5l1.4 4.5 2.6-4.5h1.4z" fill="black"/>
  <path d="M12 7.7L11.8 8.8c-.6-.2-1.3-.3-2-.3-2 0-3.5 1.2-3.5 3.2 0 1.8 1.3 2.9 3.3 2.9 1.1 0 1.8-.3 1.8-.3l-.6 2.6s-.9.4-2.1.4C5.7 17.4 3.8 15.3 3.8 12.4c0-3.4 2.6-5.5 6-5.5.8 0 1.8.2 2.3.4l-.1.4z" fill="black"/>
  <path d="M9.9 5.8c-.8.6-1.4 1.7-1.4 2.6 0 .2 0 .4.1.6 1-.1 2-.5 2.4-1.4.4-.6.6-1.6.6-2.6 0-.2-.1-.4-.1-.6-1 0-2.1.5-2.4 1.6l.8-.2z" fill="black"/>
</svg>
